<svg width="120" height="43" viewBox="0 0 120 43" fill="none" xmlns="http://www.w3.org/2000/svg">
<g clip-path="url(#clip0_4_6385)">
<path d="M42.0532 0C42.0532 0.127007 42.0603 0.246957 42.0603 0.373964C42.0603 13.4133 42.0603 26.4526 42.0603 39.499C42.0603 39.5908 42.0603 39.6825 42.0603 39.7672C42.0532 39.9012 42.0391 39.9365 41.8698 39.9436C41.8133 39.9436 41.7569 39.9436 41.7004 39.9436C41.5875 39.9436 41.4746 39.9436 41.3618 39.9436C27.7509 39.9436 14.14 39.9436 0.529169 39.9436C0.402163 39.9436 0.282212 39.9436 0.155206 39.9436C0.0987587 39.9436 0.0423113 39.9647 -0.00708008 39.9718C-2.41622e-05 26.6502 -2.41622e-05 13.3216 -2.41622e-05 0C14.0201 0 28.0402 0 42.0532 0Z" fill="#333333"/>
<path d="M120 40.0424C119.929 40 119.852 40 119.774 39.993C119.245 39.9647 118.716 39.9295 118.187 39.9012C117.756 39.8801 117.333 39.8589 116.902 39.8448C116.133 39.8166 115.364 39.8236 114.602 39.8589C113.981 39.8871 113.36 39.9224 112.747 39.9577C112.45 39.9718 112.161 39.9789 111.865 39.993C111.639 40.0071 111.413 40.0212 111.187 40.0353C111.131 40.0353 111.074 40.0353 111.018 40.0282C110.99 40.0212 110.961 39.9859 110.954 39.9647C110.94 39.9224 110.94 39.873 110.94 39.8307C110.94 39.1745 110.94 38.5253 110.94 37.8691C110.94 37.8268 110.947 37.7774 110.954 37.7351C110.954 37.6927 110.99 37.6716 111.018 37.6645C111.095 37.6504 111.173 37.6363 111.251 37.6292C111.568 37.6081 111.879 37.5657 112.189 37.4881C112.351 37.4458 112.514 37.3964 112.676 37.3399C112.768 37.3047 112.859 37.2553 112.944 37.1988C113.113 37.0859 113.226 36.9378 113.255 36.7331C113.269 36.6343 113.297 36.5356 113.304 36.4297C113.332 36.0558 113.367 35.6889 113.382 35.3149C113.494 32.8594 113.487 30.404 113.494 27.9485C113.501 23.6303 113.509 19.3121 113.516 15.0009C113.516 13.4133 113.516 11.8257 113.509 10.2311C113.501 9.23621 113.473 8.24838 113.452 7.25349C113.452 7.19705 113.445 7.1406 113.438 7.08415C113.41 7.09121 113.382 7.09826 113.374 7.10532C113.339 7.18999 113.311 7.27466 113.29 7.35933C112.634 9.63134 111.977 11.9033 111.328 14.1824C110.333 17.6398 109.353 21.0902 108.358 24.5476C107.899 26.1422 107.426 27.7227 106.925 29.3032C106.558 30.4675 106.135 31.6035 105.705 32.7395C104.823 35.0679 103.948 37.3964 103.066 39.7248C103.023 39.8377 102.974 39.9577 102.932 40.0565C102.875 40.1059 102.819 40.1059 102.762 40.1059C101.619 40.1129 100.483 40.1129 99.3403 40.12C99.0933 40.12 98.8464 40.12 98.5923 40.1129C98.5359 40.1129 98.4794 40.1059 98.423 40.0918C98.3948 40.0847 98.3665 40.0494 98.3524 40.0282C98.3383 40 98.3383 39.9647 98.3383 39.9295C98.3172 39.4144 98.296 38.8922 98.2819 38.3772C98.2748 38.2219 98.2819 38.0596 98.2889 37.9044C98.2889 37.8056 98.3313 37.7704 98.4371 37.7492C98.6911 37.7068 98.9451 37.6645 99.2062 37.6151C99.439 37.5728 99.6648 37.5022 99.8836 37.4105C100.011 37.3611 100.131 37.2905 100.229 37.2059C100.363 37.093 100.448 36.9519 100.441 36.7684C100.441 36.7261 100.441 36.6767 100.441 36.6343C100.434 29.3174 100.434 22.0004 100.42 14.6904C100.413 12.2561 100.385 9.82185 100.363 7.38756C100.356 6.64668 100.321 5.89876 100.307 5.15788C100.3 4.69219 100.265 4.23356 100.243 3.77492C100.236 3.70436 100.236 3.64086 100.229 3.5703C100.208 3.3304 100.095 3.14695 99.9047 3.00583C99.7777 2.9141 99.6366 2.84354 99.4884 2.78004C99.2697 2.68831 99.0369 2.63892 98.804 2.58953C98.5923 2.54719 98.3807 2.52603 98.169 2.4978C98.0914 2.48369 98.0138 2.47663 97.9361 2.46252C97.8585 2.44841 97.8303 2.40608 97.8232 2.3214C97.8232 2.30729 97.8232 2.30024 97.8232 2.28612C97.8232 1.60876 97.8232 0.931388 97.8232 0.254019C97.8232 0.232852 97.8303 0.211684 97.8303 0.18346C97.8374 0.127013 97.8797 0.0846774 97.9432 0.0846774C98.0702 0.0917333 98.1902 0.0917333 98.3172 0.0987893C98.5077 0.112901 98.6982 0.134069 98.8887 0.141125C99.4743 0.176404 100.06 0.225796 100.646 0.254019C101.076 0.275187 101.499 0.282243 101.93 0.282243C102.367 0.282243 102.812 0.282243 103.249 0.268131C103.983 0.246964 104.717 0.225796 105.444 0.162293C105.535 0.155237 105.627 0.155237 105.712 0.148181C105.923 0.134069 106.142 0.112901 106.354 0.0987893C106.509 0.0846774 106.671 0.0776215 106.827 0.0705656C106.883 0.0705656 106.925 0.112901 106.932 0.176404C106.932 0.232852 106.939 0.289299 106.939 0.345746C106.939 0.9455 106.939 1.5382 106.939 2.13795C106.939 2.20851 106.932 2.27201 106.932 2.34257C106.932 2.38491 106.89 2.42019 106.841 2.42724C106.805 2.4343 106.77 2.4343 106.742 2.44135C106.46 2.47663 106.177 2.50486 105.909 2.56836C105.733 2.6107 105.557 2.66009 105.387 2.70948C105.225 2.75887 105.077 2.83649 104.936 2.94233C104.766 3.06933 104.653 3.23162 104.625 3.4433C104.611 3.55619 104.583 3.66909 104.576 3.77492C104.548 4.14889 104.519 4.5158 104.505 4.88976C104.442 6.37856 104.428 7.86736 104.413 9.3491C104.392 11.4377 104.371 13.5192 104.385 15.6077C104.392 17.4211 104.413 19.2344 104.435 21.0549C104.463 23.715 104.498 26.375 104.526 29.0351C104.533 29.4444 104.54 29.8466 104.548 30.2487C104.548 30.3122 104.562 30.3828 104.569 30.4463C104.569 30.4534 104.583 30.4604 104.59 30.4604C104.597 30.4604 104.618 30.4604 104.618 30.4534C104.66 30.3475 104.696 30.2417 104.731 30.1358C105.422 27.9062 106.114 25.6836 106.805 23.4539C107.666 20.6809 108.513 17.8938 109.339 15.1067C110.446 11.3812 111.526 7.64862 112.556 3.90193C112.874 2.75887 113.184 1.62287 113.494 0.479809C113.509 0.423362 113.523 0.366914 113.544 0.317523C113.565 0.261075 113.6 0.21874 113.664 0.21874C113.699 0.21874 113.734 0.211684 113.763 0.21874C113.819 0.21874 113.875 0.21874 113.932 0.225796C114.701 0.275187 115.463 0.246964 116.232 0.225796C116.387 0.21874 116.55 0.211684 116.705 0.211684C117.396 0.211684 118.081 0.148181 118.765 0.112901C119.033 0.0987893 119.309 0.0705656 119.577 0.0493978C119.633 0.0423419 119.69 0.035286 119.732 -0.00704956C119.802 -0.00704956 119.866 -0.00704956 119.937 -0.00704956C119.944 0.0493978 119.958 0.105845 119.958 0.162293C119.965 0.825549 119.965 1.48881 119.965 2.15912C119.965 2.37785 119.929 2.40608 119.711 2.42019C119.33 2.44841 118.949 2.51897 118.582 2.62481C118.419 2.6742 118.264 2.7377 118.116 2.81532C117.841 2.96349 117.672 3.18928 117.643 3.5068C117.629 3.71848 117.594 3.93015 117.587 4.14889C117.559 4.66397 117.537 5.18611 117.516 5.70119C117.502 6.20922 117.502 6.71724 117.481 7.22527C117.446 8.28366 117.439 9.34205 117.439 10.4004C117.418 16.5109 117.425 22.6142 117.488 28.7247C117.502 30.5169 117.509 32.3091 117.573 34.1013C117.594 34.6093 117.622 35.1173 117.65 35.6183C117.664 35.8229 117.686 36.0205 117.714 36.2251C117.728 36.3592 117.756 36.4932 117.784 36.6273C117.827 36.8531 117.947 37.0154 118.151 37.1212C118.321 37.2059 118.504 37.2764 118.688 37.3329C119.118 37.4599 119.563 37.5375 120.014 37.601C120 38.4195 120 39.2309 120 40.0424Z" fill="#333333"/>
<path d="M65.5566 42.0039C65.359 41.5523 65.0909 41.1572 64.7734 40.7832C64.7169 40.7127 64.6463 40.6492 64.5828 40.5857C64.4135 40.4093 64.2089 40.2964 63.969 40.247C63.849 40.2188 63.7291 40.1905 63.6021 40.1694C63.1646 40.0988 62.7271 40.0635 62.2897 40.0282C61.2172 39.9506 60.1447 39.9577 59.0722 39.9577C56.3274 39.9577 53.5897 39.9647 50.845 39.9718C50.2593 39.9718 49.6737 39.9789 49.088 40C48.2272 40.0212 47.3734 40.0635 46.5197 40.12C46.2727 40.1341 46.0258 40.1623 45.7788 40.1764C45.7224 40.1835 45.6659 40.1694 45.6095 40.1623C45.5954 40.1623 45.5671 40.1341 45.5671 40.12C45.553 40.0424 45.546 39.9647 45.546 39.8871C45.5389 39.2874 45.5389 38.6947 45.5389 38.0949C45.5389 38.0385 45.5389 37.982 45.546 37.9256C45.553 37.848 45.5883 37.7986 45.6659 37.7845C45.8776 37.7492 46.0893 37.721 46.3009 37.6857C46.555 37.6363 46.809 37.5869 47.063 37.5304C47.1406 37.5163 47.2112 37.4881 47.2888 37.4599C47.5146 37.3893 47.6768 37.2341 47.7686 37.0154C47.8674 36.7896 47.9379 36.5497 47.952 36.2957C47.9732 35.9005 48.0014 35.5054 48.0085 35.1103C48.0226 34.2212 48.0367 33.3322 48.0367 32.4361C48.0367 27.8497 48.0367 23.2634 48.0296 18.67C48.0296 15.7841 48.0155 12.8982 48.0155 10.0124C48.0155 8.91869 47.9873 7.82502 47.9661 6.73135C47.952 5.97637 47.9167 5.22138 47.8744 4.4664C47.8603 4.20533 47.8321 3.95132 47.8039 3.69025C47.7968 3.62674 47.7756 3.55619 47.7686 3.49268C47.7333 3.27395 47.6133 3.12577 47.4299 3.01288C47.2958 2.92821 47.1477 2.87176 46.9995 2.81531C46.7102 2.71653 46.4068 2.66714 46.1104 2.6248C46.0893 2.6248 46.0681 2.61775 46.0399 2.61775C45.553 2.5613 45.5036 2.55424 45.4895 2.50485C45.4331 2.32846 45.4683 2.145 45.4613 1.9686C45.4542 1.46058 45.4613 0.952551 45.4613 0.444525C45.4613 0.381021 45.4683 0.310462 45.4825 0.246959C45.4825 0.232847 45.5107 0.204623 45.5248 0.204623C45.5671 0.190511 45.6165 0.183455 45.6589 0.183455C45.8846 0.190511 46.1104 0.190511 46.3362 0.211679C46.8866 0.268127 47.4369 0.282238 47.9944 0.310462C48.5447 0.338686 49.1021 0.338686 49.6525 0.352798C50.4004 0.373965 51.1413 0.338686 51.8892 0.310462C52.4325 0.289294 52.9688 0.239903 53.5121 0.211679C53.8296 0.190511 54.1401 0.1764 54.4576 0.162288C54.5352 0.155232 54.5775 0.204623 54.5846 0.282238C54.5846 0.317518 54.5846 0.352798 54.5846 0.381021C54.5846 1.009 54.5846 1.64403 54.5846 2.27201C54.5846 2.34257 54.5775 2.40607 54.5634 2.46957C54.5634 2.49074 54.5423 2.51191 54.5211 2.51897C54.4788 2.53308 54.4364 2.54013 54.387 2.54719C54.0695 2.61069 53.7449 2.66714 53.4274 2.7377C53.2722 2.77298 53.124 2.81531 52.9758 2.87176C52.496 3.05522 52.4396 3.16811 52.3408 3.61263C52.2703 3.92309 52.242 4.23355 52.2138 4.55107C52.1574 5.21433 52.1362 5.87758 52.1221 6.54084C52.0515 9.15859 52.0656 11.7693 52.0656 14.387C52.0656 18.2537 52.0656 22.1203 52.0797 25.987C52.0868 28.4354 52.1291 30.8767 52.1644 33.3251C52.1785 34.3059 52.1997 35.2867 52.1997 36.2674C52.1997 36.3592 52.2068 36.4509 52.2068 36.5356C52.2068 36.5779 52.2491 36.6202 52.2914 36.6273C52.4396 36.6485 52.5807 36.6696 52.7289 36.6908C52.8488 36.7049 52.9758 36.719 53.0958 36.7261C53.6603 36.7755 54.2177 36.8319 54.7822 36.8319C55.9111 36.8249 57.0401 36.8249 58.169 36.8249C58.7123 36.8249 59.2486 36.7755 59.7919 36.719C60.0388 36.6908 60.2858 36.6626 60.5327 36.6343C60.5539 36.6343 60.5751 36.6273 60.6033 36.6273C60.688 36.6132 60.7303 36.5779 60.7303 36.5003C60.7374 36.4086 60.7374 36.3168 60.7374 36.2322C60.7444 35.6889 60.7444 35.1526 60.7444 34.6093C60.7585 32.422 60.7868 30.2346 60.7938 28.0473C60.8009 26.1563 60.8009 24.2583 60.7938 22.3673C60.7797 18.5782 60.7585 14.7892 60.7303 11.0072C60.7162 9.49727 60.688 7.9873 60.6527 6.47734C60.6315 5.72235 60.5962 4.96737 60.5257 4.21239C60.4975 3.94426 60.4622 3.67614 60.4128 3.40801C60.3705 3.19633 60.2505 3.0411 60.06 2.93526C59.8342 2.80826 59.5802 2.73064 59.3262 2.6742C59.0298 2.61069 58.7264 2.55424 58.423 2.53308C58.3807 2.52602 58.3313 2.52602 58.289 2.51897C58.2537 2.51191 58.2043 2.46957 58.1972 2.42724C58.1902 2.39196 58.1831 2.36374 58.1831 2.32846C58.1831 1.65109 58.1761 0.973719 58.1761 0.29635C58.1761 0.261071 58.1761 0.225791 58.1902 0.197567C58.2043 0.169344 58.2325 0.14112 58.2607 0.134064C58.3031 0.119952 58.3525 0.127008 58.3948 0.127008C58.5994 0.14112 58.797 0.155232 59.0016 0.169344C59.7778 0.225791 60.5539 0.246959 61.3371 0.282238C62.078 0.352798 62.7977 0.359854 63.5174 0.33163C64.1736 0.310462 64.8227 0.261071 65.4789 0.225791C65.9658 0.197567 66.4456 0.169344 66.9325 0.148176C67.3417 0.134064 67.3205 0.0987844 67.3205 0.515084C67.3205 1.07956 67.3205 1.64403 67.3205 2.2085C67.3205 2.28612 67.3135 2.36373 67.3064 2.44135C67.3064 2.46252 67.2782 2.47663 67.2641 2.49074C67.2429 2.50485 67.2218 2.50485 67.2006 2.50485C67.0101 2.52602 66.8196 2.54013 66.6291 2.55424C66.3892 2.57541 66.1634 2.6248 65.9376 2.70948C65.8106 2.75181 65.6836 2.81531 65.5707 2.87882C65.1897 3.09755 64.978 3.42918 64.9427 3.85959C64.9145 4.21944 64.8862 4.57929 64.8792 4.93915C64.7945 7.46517 64.7945 9.99119 64.7804 12.5101C64.7663 15.9605 64.7663 19.4108 64.7734 22.8612C64.7734 25.1473 64.7945 27.4405 64.8157 29.7266C64.8227 30.4392 64.8439 31.1448 64.858 31.8575C64.8651 32.2173 64.8721 32.5772 64.8792 32.937C64.8862 33.184 64.8933 33.431 64.9004 33.6779C64.9145 34.073 64.9286 34.4682 64.9427 34.8633C64.9709 35.4631 65.0062 36.0558 65.0768 36.6485C65.0909 36.7613 65.1191 36.8672 65.1403 36.9801C65.1614 37.093 65.232 37.1847 65.3237 37.2553C65.4366 37.347 65.5707 37.4105 65.7118 37.4599C65.86 37.5093 66.0152 37.5516 66.1704 37.5798C66.3892 37.6222 66.615 37.6433 66.8407 37.6645C67.257 37.7068 67.6733 37.728 68.0896 37.728C68.132 37.728 68.1814 37.7351 68.2237 37.7421C68.2519 37.7421 68.2872 37.7845 68.2872 37.8127C68.2872 37.8339 68.2943 37.855 68.2943 37.8762C68.2449 38.5536 68.1884 39.2239 68.139 39.9012C68.1038 40.374 68.0755 40.8467 68.0402 41.3195C68.0261 41.5453 68.005 41.7711 67.9838 41.9968C67.1794 42.0039 66.368 42.0039 65.5566 42.0039Z" fill="#333333"/>
<path d="M69.2468 2.46957C69.2397 2.43429 69.2326 2.38489 69.2326 2.34256C69.2326 1.6793 69.2256 1.00899 69.2256 0.345735C69.2256 0.303399 69.2256 0.254008 69.2397 0.211672C69.2468 0.183449 69.275 0.155225 69.3103 0.148169C69.3526 0.141113 69.402 0.141113 69.4443 0.141113C69.6278 0.148169 69.8042 0.148169 69.9876 0.155225C71.1801 0.225784 72.3796 0.211672 73.5791 0.197561C74.2917 0.190505 74.9973 0.155225 75.71 0.134057C75.7876 0.134057 75.8652 0.127001 75.9499 0.127001C76.1404 0.127001 76.1545 0.141113 76.1968 0.324567C76.3732 1.15011 76.5496 1.97565 76.726 2.80119C77.0294 4.1771 77.3258 5.553 77.6433 6.92185C78.4124 10.2099 79.1885 13.505 79.9718 16.7931C80.6421 19.6225 81.3194 22.4519 81.9897 25.2743C82.2297 26.2692 82.4625 27.2711 82.7024 28.266C82.7236 28.3648 82.7518 28.4636 82.78 28.5623C82.7941 28.6047 82.8294 28.6329 82.8506 28.6188C82.8647 28.6047 82.8929 28.5906 82.8929 28.5765C82.9635 28.2942 83.034 28.0049 83.1046 27.7227C83.7537 24.992 84.4099 22.2685 85.052 19.5378C85.5389 17.4775 86.0187 15.4101 86.4914 13.3498C86.8724 11.7058 87.2464 10.0547 87.6204 8.41065C87.952 6.9289 88.2766 5.44011 88.6011 3.95131C88.8552 2.75886 89.1021 1.57346 89.3561 0.381014C89.3702 0.317511 89.3844 0.246952 89.4055 0.183449C89.4267 0.105834 89.469 0.07761 89.5608 0.0846659C89.596 0.0846659 89.6313 0.0917218 89.6595 0.0917218C89.8148 0.105834 89.9771 0.119945 90.1323 0.134057C91.4376 0.225784 92.75 0.23284 94.0554 0.190505C94.5705 0.176393 95.0926 0.127001 95.6077 0.0917218C95.65 0.0917218 95.6994 0.0846659 95.7417 0.07761C95.9675 0.0634982 95.9958 0.0846659 95.9958 0.317511C96.0028 0.945488 96.0028 1.58052 96.0028 2.2085C96.0028 2.26494 96.0028 2.32139 95.9887 2.37784C95.9816 2.40606 95.9534 2.44134 95.9252 2.4484C95.8617 2.46957 95.7982 2.48368 95.7276 2.49073C95.3819 2.54012 95.0361 2.60363 94.7045 2.70241C94.5563 2.74475 94.4082 2.80825 94.26 2.8647C94.0483 2.95642 93.9213 3.11165 93.8649 3.33744C93.8084 3.57734 93.7661 3.8243 93.7449 4.07126C93.6955 4.52989 93.6744 4.99558 93.6602 5.45422C93.6038 6.90774 93.6038 8.36126 93.5897 9.81477C93.5473 13.378 93.5473 16.9412 93.5685 20.4974C93.5826 23.348 93.6038 26.1986 93.632 29.0563C93.6461 30.3969 93.6673 31.7375 93.6885 33.0781C93.7026 33.8331 93.7308 34.5881 93.759 35.3431C93.7731 35.6465 93.7943 35.9499 93.8225 36.2533C93.8437 36.5002 93.9072 36.7402 94.013 36.9659C94.0907 37.1282 94.2035 37.2341 94.3729 37.2976C94.6622 37.4034 94.9585 37.474 95.2549 37.5375C95.4877 37.5869 95.7206 37.6292 95.9534 37.6715C96.0522 37.6927 96.0804 37.735 96.0875 37.8338C96.0875 37.8691 96.0875 37.9044 96.0875 37.9326C96.0875 38.5747 96.0875 39.2168 96.0945 39.8589C96.0945 39.9012 96.0945 39.9506 96.0804 39.9929C96.0734 40.0212 96.0381 40.0423 96.0099 40.0564C95.9887 40.0635 95.9675 40.0635 95.9464 40.0635C95.6641 40.0423 95.3819 40.0141 95.0997 39.9929C95.0432 39.9859 94.9868 39.9788 94.9303 39.9788C93.8296 39.9012 92.7218 39.8589 91.614 39.88C91.2189 39.8871 90.8238 39.8871 90.4286 39.9083C89.8218 39.9365 89.215 39.9718 88.6011 40.0141C88.2272 40.0353 87.8603 40.0635 87.4863 40.0917C87.4299 40.0988 87.3734 40.0917 87.317 40.0917C87.2746 40.0917 87.2323 40.0494 87.2323 40C87.2252 39.9224 87.2182 39.8448 87.2182 39.7671C87.2182 39.3085 87.2111 38.8428 87.2111 38.3842C87.2111 38.236 87.2111 38.0878 87.2111 37.9467C87.2111 37.9044 87.2111 37.855 87.2252 37.8127C87.2323 37.7844 87.2605 37.7562 87.2887 37.7421C87.3311 37.7209 87.3734 37.7139 87.4158 37.7139C87.5498 37.6998 87.6839 37.6856 87.8179 37.6856C88.0226 37.6856 88.2201 37.6504 88.4247 37.6151C88.5729 37.5869 88.707 37.5445 88.841 37.481C89.0668 37.3752 89.2221 37.2058 89.2997 36.9659C89.335 36.8601 89.3632 36.7472 89.3844 36.6414C89.4196 36.4297 89.4479 36.218 89.469 36.0063C89.5255 35.4701 89.5396 34.9268 89.5537 34.3835C89.6031 32.7606 89.6031 31.1378 89.6031 29.5149C89.596 23.1716 89.5819 16.8213 89.5749 10.478C89.5749 9.85711 89.5678 9.23619 89.5678 8.61527C89.5678 8.51649 89.5537 8.41065 89.5466 8.31186C89.5466 8.30481 89.5325 8.28364 89.5325 8.28364C89.5114 8.2907 89.4831 8.29775 89.4831 8.31186C89.4055 8.60821 89.335 8.8975 89.2644 9.19385C88.6858 11.614 88.1072 14.0342 87.5357 16.4614C87.0912 18.3242 86.6608 20.187 86.2233 22.0568C85.7788 23.9548 85.3413 25.8529 84.8968 27.7509C84.5017 29.4655 84.1065 31.173 83.7114 32.8876C83.4503 34.0166 83.1963 35.1526 82.9423 36.2815C82.6953 37.4175 82.4554 38.5535 82.2085 39.6825C82.1803 39.8024 82.1591 39.9224 82.1309 40.0423C82.1097 40.1199 82.0674 40.1623 81.9897 40.1693C81.6863 40.1693 81.3829 40.1764 81.0725 40.1764C81.0231 40.1764 80.9666 40.127 80.9525 40.0705C80.882 39.753 80.8114 39.4355 80.7409 39.1109C80.4516 37.8268 80.1764 36.5355 79.88 35.2514C79.3508 32.9582 78.8216 30.665 78.2783 28.3718C77.8268 26.4667 77.3681 24.5616 76.9095 22.6565C76.4438 20.7303 75.9852 18.804 75.5195 16.8707C75.0397 14.8527 74.5528 12.8418 74.073 10.8238C73.8754 10.0053 73.6779 9.17974 73.4803 8.36126C73.4733 8.33303 73.445 8.30481 73.4309 8.27658C73.4309 8.26953 73.4027 8.27658 73.4027 8.28364C73.3886 8.30481 73.3815 8.32598 73.3815 8.34009C73.3815 8.45298 73.3815 8.56588 73.3815 8.67877C73.4027 14.4082 73.4168 20.1305 73.438 25.8599C73.4521 28.4988 73.4803 31.1378 73.5085 33.7696C73.5156 34.32 73.5368 34.8774 73.572 35.4277C73.5932 35.7735 73.6214 36.1263 73.692 36.465C73.7202 36.6061 73.7625 36.7472 73.7978 36.8883C73.8472 37.0718 73.9672 37.1988 74.1295 37.2976C74.2917 37.3964 74.4681 37.474 74.6586 37.5234C74.8844 37.5869 75.1173 37.6433 75.3501 37.6715C75.4983 37.6856 75.6394 37.7139 75.7876 37.735C75.8793 37.7491 75.9075 37.7844 75.9146 37.862C75.9146 37.9044 75.9217 37.9538 75.9217 37.9961C75.9217 38.617 75.9217 39.2379 75.9217 39.8589C75.9217 39.9012 75.9217 39.9506 75.9146 39.9929C75.9075 40.0917 75.8582 40.1058 75.7805 40.0988C75.7029 40.0988 75.6253 40.0917 75.5477 40.0776C75.0891 40.0141 74.6304 39.9788 74.1647 39.9435C73.5579 39.9012 72.9441 39.8941 72.3372 39.9153C71.7728 39.9365 71.2083 39.9506 70.6438 40C70.2628 40.0353 69.8818 40.0776 69.5008 40.1129C69.4655 40.1129 69.4302 40.1199 69.402 40.1129C69.3738 40.1058 69.3385 40.0776 69.3244 40.0494C69.3103 40.0211 69.3103 39.9859 69.3103 39.9506C69.3103 39.2873 69.3103 38.617 69.3032 37.9538C69.3032 37.9185 69.3032 37.8832 69.3103 37.855C69.3173 37.7985 69.3596 37.7491 69.4161 37.7421C69.5925 37.7139 69.776 37.6927 69.9523 37.6645C70.1076 37.6433 70.2628 37.6221 70.418 37.5939C70.5944 37.5586 70.7638 37.5022 70.9261 37.4175C71.2083 37.2623 71.3988 37.0436 71.4694 36.719C71.5329 36.4438 71.5682 36.1616 71.5893 35.8864C71.6669 34.9903 71.6881 34.0871 71.6952 33.184C71.7375 29.148 71.7798 25.112 71.7728 21.076C71.7657 17.3434 71.7445 13.6109 71.7304 9.88533C71.7234 8.71405 71.7163 7.54277 71.7022 6.37149C71.6952 5.86346 71.674 5.35543 71.6458 4.84741C71.6246 4.45228 71.6034 4.05715 71.5329 3.66907C71.4976 3.48562 71.4411 3.32333 71.3494 3.16105C71.2647 3.01993 71.1519 2.91409 70.9966 2.8647C70.8696 2.82236 70.7356 2.78003 70.6085 2.7518C70.2487 2.66713 69.8818 2.59657 69.5149 2.54718C69.409 2.54718 69.3244 2.54012 69.2468 2.46957Z" fill="#333333"/>
<path d="M21.3089 1.48174C21.704 1.46763 22.3108 1.50996 22.9176 1.56641C25.3237 1.78514 27.6169 2.39901 29.7971 3.45034C32.4713 4.73452 34.7504 6.52672 36.599 8.85517C38.2431 10.9226 39.3861 13.244 40.0141 15.8123C40.1834 16.5108 40.3104 17.2235 40.3881 17.9432C40.4939 18.8605 40.5362 19.7848 40.4939 20.7091C40.4657 21.3159 40.4092 21.9227 40.3246 22.5225C40.1058 24.0466 39.6895 25.5142 39.0827 26.9324C38.3207 28.7105 37.3046 30.3263 36.0275 31.7728C33.819 34.2918 31.1236 36.1051 27.9767 37.2552C26.8619 37.6645 25.7188 37.9608 24.5475 38.1584C24.0324 38.2431 23.5244 38.3066 23.0023 38.363C22.4872 38.4195 21.9651 38.4265 21.45 38.4477C21.1254 38.4618 20.7938 38.4406 20.4692 38.4406C20.314 38.4406 20.1517 38.4265 19.9965 38.4195C19.5237 38.4054 19.051 38.3489 18.5782 38.2995C18.1266 38.2431 17.6821 38.1725 17.2447 38.0878C16.0875 37.8691 14.9656 37.5516 13.8649 37.1282C11.6211 36.2674 9.58899 35.0467 7.79679 33.445C5.84935 31.7022 4.31822 29.6419 3.23867 27.257C2.6883 26.0434 2.27906 24.7804 2.01799 23.468C1.86982 22.7271 1.77103 21.9792 1.71459 21.2242C1.67225 20.6386 1.6652 20.0529 1.68636 19.4673C1.78515 15.9816 2.83648 12.8065 4.79097 9.92767C6.63962 7.21114 9.05274 5.1367 11.9668 3.64791C13.4627 2.88587 15.0291 2.32845 16.6661 1.96154C17.2305 1.83453 17.795 1.73575 18.3665 1.66519C19.2626 1.5523 20.1729 1.48879 21.3089 1.48174Z" fill="white"/>
<path d="M25.4507 14.2812C25.4295 14.2882 25.4013 14.2882 25.3943 14.3024C25.366 14.3659 25.3449 14.4294 25.3237 14.4929C25.0979 15.396 24.8651 16.3062 24.6393 17.2164C24.3076 18.55 23.9901 19.8836 23.6303 21.2101C23.1011 23.1716 22.4519 25.0909 21.6546 26.9607C21.3935 27.5745 21.1113 28.1743 20.7656 28.7458C20.5539 29.1057 20.3211 29.4514 20.0529 29.7689C19.7072 30.1782 19.3121 30.531 18.8534 30.7991C18.4089 31.0602 17.9362 31.2295 17.4281 31.293C16.9624 31.3565 16.5038 31.3071 16.0593 31.1519C15.6712 31.0108 15.3396 30.7779 15.0644 30.4745C14.8598 30.2487 14.6904 29.9947 14.5564 29.7195C14.3517 29.3174 14.2036 28.8869 14.0977 28.4495C13.9425 27.8144 13.8578 27.1653 13.8155 26.5091C13.7802 25.8811 13.752 25.2461 13.7802 24.6181C13.8084 23.9337 13.8367 23.2422 13.9072 22.5578C13.9919 21.697 14.0836 20.8291 14.2106 19.9753C14.2882 19.4391 14.3588 18.9028 14.4364 18.3666C14.507 17.8868 14.5916 17.407 14.6693 16.9342C14.7963 16.2004 14.9233 15.4666 15.0503 14.7328C15.1491 14.133 15.2549 13.5333 15.3466 12.9335C15.4101 12.5101 15.4666 12.0868 15.523 11.6634C15.5936 11.1131 15.643 10.5627 15.6924 10.0124C15.7135 9.78656 15.7135 9.56077 15.7276 9.33499C15.777 8.55883 15.7629 7.78268 15.7206 7.00653C15.7065 6.71724 15.6712 6.42089 15.65 6.1316C15.643 6.07515 15.6359 6.0187 15.6359 5.96225C15.6289 5.87758 15.6641 5.80702 15.7135 5.74352C15.8053 5.63768 15.9111 5.56007 16.0381 5.50362C16.1933 5.426 16.3556 5.37661 16.5179 5.35545C16.9836 5.299 17.4422 5.33428 17.8797 5.51068C18.1478 5.61651 18.3877 5.75763 18.5853 5.96225C18.6276 6.00459 18.6559 6.04693 18.6911 6.08926C18.7335 6.14571 18.7546 6.20921 18.7476 6.27977C18.7194 6.49145 18.6911 6.70313 18.6629 6.9148C18.6065 7.33816 18.55 7.76151 18.4865 8.18487C18.4301 8.60823 18.3666 9.03158 18.3101 9.45494C18.2537 9.85712 18.2043 10.2593 18.1478 10.6615C18.0843 11.1201 18.0279 11.5788 17.9714 12.0374C17.915 12.496 17.8585 12.9547 17.8021 13.4133C17.7456 13.9072 17.6821 14.4011 17.6327 14.888C17.6045 15.142 17.5763 15.4031 17.5551 15.6641C17.4987 16.3274 17.4493 16.9907 17.3928 17.6539C17.3364 18.2748 17.3082 18.8887 17.2941 19.5096C17.28 20.1517 17.2729 20.7938 17.2941 21.4359C17.3082 22.0356 17.3505 22.6283 17.4211 23.221C17.4775 23.6656 17.5481 24.1101 17.6821 24.5476C17.7386 24.7451 17.8091 24.9356 17.9079 25.112C17.9714 25.2179 18.042 25.3237 18.1337 25.4013C18.3242 25.5636 18.5288 25.6059 18.7617 25.5142C18.9028 25.4648 19.0228 25.3872 19.1357 25.2884C19.2909 25.1544 19.4249 25.0062 19.5449 24.8439C19.7354 24.5899 19.8906 24.3147 20.0318 24.0325C20.2717 23.5456 20.4763 23.0446 20.6597 22.5366C20.9631 21.697 21.2101 20.8432 21.4359 19.9824C21.6758 19.0792 21.9016 18.169 22.1062 17.2588C22.3179 16.2921 22.5225 15.3184 22.6918 14.3447C22.8682 13.3216 23.0446 12.3055 23.2069 11.2824C23.341 10.471 23.4539 9.6525 23.5738 8.84107C23.6797 8.14253 23.7855 7.43694 23.8913 6.73841C23.9055 6.64668 23.9407 6.56906 24.0042 6.4985C24.4417 6.03987 24.8721 5.58123 25.3096 5.12966C25.6059 4.8192 25.9305 4.54401 26.2762 4.29C26.4738 4.14183 26.6855 4.00776 26.9113 3.90193C27.1159 3.80314 27.3276 3.73258 27.5534 3.69025C27.8074 3.64086 28.0473 3.66202 28.2872 3.73258C28.3225 3.7467 28.3719 3.78903 28.3719 3.83137C28.3719 3.88781 28.3789 3.94426 28.3789 4.00071C28.3577 4.4029 28.3295 4.81214 28.3154 5.21433C28.3013 5.59535 28.2872 5.98342 28.2872 6.36444C28.2872 7.13354 28.2801 7.89558 28.3013 8.66467C28.3154 9.36321 28.3507 10.0617 28.4071 10.7603C28.4354 11.099 28.4565 11.4376 28.4847 11.7693C28.5341 12.3761 28.5976 12.9829 28.6753 13.5826C28.7529 14.1612 28.8234 14.7469 28.9081 15.3255C28.9928 15.897 29.0845 16.4615 29.1903 17.0259C29.3456 17.8797 29.5149 18.7264 29.7054 19.5802C30.157 21.6264 30.6932 23.6514 31.3142 25.6553C31.5964 26.5726 31.8998 27.4758 32.1891 28.393C32.2385 28.5553 32.2879 28.7176 32.3232 28.8799C32.3937 29.1762 32.3091 29.4373 32.1044 29.656C32.0198 29.7478 31.928 29.8254 31.8151 29.8889C31.7234 29.9383 31.6387 29.9877 31.547 30.0371C30.5874 30.5663 29.7478 31.2366 29.0351 32.0692C29.0139 32.0974 28.9928 32.1186 28.9716 32.1468C28.8375 32.3161 28.767 32.3302 28.5976 32.1327C28.4777 31.9915 28.4001 31.8293 28.3295 31.667C28.2096 31.3847 28.1178 31.0954 28.0332 30.8062C27.8427 30.157 27.7015 29.4938 27.5675 28.8376C27.3911 27.9626 27.2429 27.0877 27.1018 26.2127C26.9748 25.4013 26.8548 24.5899 26.7349 23.7714C26.629 23.0446 26.5232 22.3249 26.4244 21.5982C26.3186 20.8361 26.2269 20.0812 26.1281 19.3191C26.0505 18.7264 25.9658 18.1337 25.8882 17.541C25.8106 16.9483 25.74 16.3556 25.6624 15.7629C25.5989 15.3043 25.5354 14.8457 25.4719 14.387C25.4719 14.3447 25.4578 14.3165 25.4507 14.2812ZM13.9707 9.83596C13.9989 9.60311 14.0272 9.36321 14.0554 9.13036C14.0977 8.6929 14.1401 8.25543 14.1824 7.81796C14.1824 7.81091 14.1753 7.78974 14.1683 7.78974C14.1471 7.78974 14.1189 7.78974 14.1118 7.80385C14.0554 7.88852 14.006 7.98025 13.9637 8.06492C13.4627 9.02452 13.0182 10.0124 12.6019 11.0072C11.8892 12.7218 11.2471 14.4717 10.6403 16.2286C9.46199 19.6507 8.36127 23.094 7.31699 26.5585C7.04181 27.4616 6.76663 28.3719 6.42795 29.2538C6.36444 29.4161 6.34328 29.5784 6.36444 29.7478C6.47028 30.531 6.80897 31.1801 7.41578 31.6881C7.48634 31.7446 7.55689 31.801 7.63451 31.8434C8.10726 32.1186 8.59411 32.1397 9.09508 31.921C9.28559 31.8363 9.44788 31.7164 9.59606 31.5752C9.80068 31.3777 9.95591 31.1448 10.0829 30.8908C10.2099 30.6368 10.3016 30.3687 10.3581 30.0935C10.4498 29.6631 10.5345 29.2327 10.6192 28.8023C10.8167 27.8074 11.0143 26.8125 11.2119 25.8176C11.4024 24.8651 11.5929 23.9196 11.7763 22.967C11.9457 22.0921 12.1221 21.2242 12.2844 20.3493C12.4325 19.5661 12.5807 18.7758 12.7218 17.9926C12.8277 17.407 12.9335 16.8143 13.0323 16.2286C13.1381 15.6148 13.2369 15.0079 13.3357 14.3941C13.4204 13.8719 13.498 13.3498 13.5756 12.8206C13.6532 12.2632 13.7308 11.7058 13.8084 11.1484C13.8649 10.7109 13.9143 10.2734 13.9707 9.83596Z" fill="#333333"/>
<path d="M38.2007 36.4438C38.2007 36.4861 38.1937 36.5355 38.1937 36.5779C38.1937 37.0647 38.1937 37.5445 38.1937 38.0314C38.1937 38.109 38.2007 38.1866 38.2078 38.2642C38.2148 38.3207 38.2783 38.3912 38.3418 38.4054C38.3771 38.4124 38.4053 38.4124 38.4406 38.4195C38.483 38.4265 38.5323 38.4195 38.5747 38.4336C38.6029 38.4406 38.6311 38.483 38.6311 38.5041C38.6311 38.5324 38.6029 38.5606 38.5747 38.5818C38.5606 38.5959 38.5323 38.5959 38.5112 38.5959C38.2289 38.5747 37.9467 38.5676 37.6645 38.5959C37.6362 38.5959 37.601 38.5888 37.5657 38.5747C37.5304 38.5606 37.5234 38.5253 37.5304 38.49C37.5375 38.4689 37.5516 38.4477 37.5657 38.4406C37.6433 38.4265 37.7209 38.4195 37.7985 38.4124C37.8691 38.4054 37.9255 38.3489 37.9397 38.2783C37.9538 38.1866 37.9679 38.102 37.9679 38.0102C37.9679 37.4669 37.9679 36.9307 37.9679 36.3874C37.9679 36.2956 37.9538 36.211 37.9397 36.1192C37.9255 36.0487 37.8691 36.0063 37.7985 35.9922C37.7209 35.9781 37.6363 35.9993 37.5657 35.957C37.5516 35.9499 37.5445 35.9217 37.5375 35.9005C37.5304 35.8723 37.5375 35.8582 37.5657 35.8441C37.5869 35.837 37.608 35.8229 37.6292 35.8229C37.8761 35.83 38.1231 35.83 38.3701 35.8088C38.4406 35.8017 38.4971 35.8441 38.5253 35.9146C38.5535 35.9852 38.5817 36.0628 38.61 36.1334C38.8146 36.6555 39.0192 37.1847 39.2238 37.7068C39.245 37.7703 39.2803 37.8268 39.3085 37.8903C39.3367 37.8762 39.3649 37.8691 39.3791 37.855C39.4073 37.8056 39.4355 37.7562 39.4567 37.7068C39.6895 37.1423 39.9224 36.5849 40.1623 36.0205C40.1764 35.9781 40.1975 35.9358 40.2187 35.9005C40.2399 35.8582 40.2752 35.83 40.3245 35.83C40.5715 35.8229 40.8185 35.8229 41.0654 35.8229C41.0795 35.8229 41.0866 35.8229 41.1007 35.83C41.1289 35.8441 41.1642 35.8582 41.1642 35.9005C41.1642 35.9287 41.143 35.9711 41.1148 35.9781C41.0372 35.9852 40.9596 35.9922 40.882 36.0063C40.8185 36.0134 40.755 36.084 40.7479 36.1404C40.7408 36.1827 40.7338 36.2321 40.7338 36.2745C40.7338 36.9024 40.7338 37.5375 40.7338 38.1655C40.7338 38.1866 40.7338 38.2078 40.7408 38.236C40.7479 38.3348 40.8114 38.4054 40.9102 38.4195C40.9878 38.4336 41.0654 38.4406 41.143 38.4547C41.1571 38.4547 41.1713 38.49 41.1713 38.5041C41.1713 38.5253 41.1642 38.5465 41.1571 38.5676C41.1501 38.5747 41.143 38.5818 41.1289 38.5888C41.0936 38.5959 41.0654 38.61 41.0301 38.61C40.6703 38.5888 40.3104 38.5818 39.9506 38.61C39.9294 38.61 39.9012 38.61 39.8871 38.5959C39.8659 38.5747 39.8447 38.5465 39.8306 38.5182C39.8236 38.4971 39.8589 38.4477 39.8871 38.4477C39.9647 38.4406 40.0423 38.4336 40.1199 38.4195C40.1764 38.4054 40.2187 38.363 40.2328 38.3066C40.2328 38.2925 40.2399 38.2854 40.2399 38.2713C40.2822 37.7068 40.2822 37.1494 40.261 36.5849C40.261 36.5567 40.2399 36.5426 40.2117 36.5497C40.2046 36.5497 40.1905 36.5567 40.1834 36.5638C40.1693 36.5779 40.1552 36.599 40.1481 36.6202C40.127 36.6696 40.0988 36.7261 40.0776 36.7754C39.8306 37.3329 39.5837 37.8903 39.372 38.4618C39.3579 38.49 39.3508 38.5253 39.3367 38.5535C39.3156 38.61 39.252 38.6453 39.2027 38.6382C39.1533 38.6311 39.118 38.6029 39.1039 38.5606C38.9416 38.1513 38.7793 37.7421 38.6241 37.3329C38.5323 37.093 38.4406 36.846 38.3418 36.6061C38.3207 36.5567 38.2924 36.5073 38.2713 36.4579C38.236 36.4368 38.2219 36.4368 38.2007 36.4438ZM35.0326 35.8017C34.9973 35.8017 34.9621 35.8017 34.9338 35.8017C34.8845 35.8017 34.828 35.8582 34.828 35.9146C34.8351 36.1263 34.8492 36.338 34.8633 36.5567C34.8633 36.5638 34.8703 36.5779 34.8774 36.5849C34.8915 36.599 34.9127 36.6132 34.9338 36.6202C34.955 36.6202 34.9832 36.6202 34.9973 36.6061C35.0185 36.5849 35.0397 36.5497 35.0467 36.5214C35.0679 36.4226 35.075 36.3239 35.0961 36.2251C35.1102 36.1404 35.1667 36.0769 35.2514 36.0699C35.4207 36.0628 35.59 36.0628 35.7594 36.0628C35.8017 36.0628 35.837 36.1051 35.8441 36.1545C35.8511 36.1898 35.8511 36.218 35.8582 36.2533C35.8934 36.8389 35.8864 37.4246 35.8793 38.0102C35.8793 38.0526 35.8723 38.1019 35.8723 38.1443C35.8441 38.3348 35.8299 38.4336 35.583 38.4265C35.5477 38.4265 35.5195 38.4336 35.4842 38.4406C35.456 38.4477 35.4278 38.49 35.4348 38.5182C35.4489 38.5465 35.4701 38.5747 35.4913 38.5959C35.5054 38.61 35.5336 38.6029 35.5548 38.6029C35.9146 38.5747 36.2745 38.5817 36.6343 38.6029C36.6696 38.6029 36.6978 38.5888 36.7331 38.5818C36.7543 38.5747 36.7825 38.5324 36.7754 38.4971C36.7684 38.4759 36.7543 38.4477 36.7472 38.4477C36.6696 38.4336 36.592 38.4265 36.5144 38.4124C36.4367 38.3983 36.3732 38.3419 36.3591 38.2572C36.3521 38.1655 36.338 38.0808 36.338 37.9891C36.338 37.4246 36.345 36.8672 36.3521 36.3027C36.3521 36.2604 36.3591 36.211 36.3662 36.1686C36.3732 36.1051 36.4156 36.0628 36.472 36.0628C36.6202 36.0628 36.7613 36.0628 36.9095 36.0699C37.0436 36.0769 37.0929 36.1263 37.1141 36.2463C37.1282 36.338 37.1423 36.4226 37.1564 36.5144C37.1635 36.5497 37.1776 36.5779 37.1917 36.6061C37.1988 36.6202 37.2341 36.6343 37.2482 36.6343C37.2764 36.6273 37.3046 36.6061 37.3328 36.592C37.3399 36.5849 37.347 36.5708 37.347 36.5638C37.354 36.3521 37.3681 36.1404 37.3752 35.9217C37.3752 35.9076 37.3752 35.9005 37.3681 35.8864C37.347 35.8652 37.3258 35.837 37.2976 35.8229C37.2693 35.8088 37.2341 35.8088 37.1988 35.8158C36.8248 35.83 36.4579 35.837 36.084 35.8511C35.7312 35.8229 35.3784 35.8158 35.0326 35.8017Z" fill="white"/>
</g>
<defs>
<clipPath id="clip0_4_6385">
<rect width="120" height="42.0039" fill="white"/>
</clipPath>
</defs>
</svg>
